<?xml version="1.0" standalone="no"?><!DOCTYPE svg PUBLIC "-//W3C//DTD SVG 1.1//EN" "http://www.w3.org/Graphics/SVG/1.1/DTD/svg11.dtd"><svg class="icon" width="200px" height="200.00px" viewBox="0 0 1024 1024" version="1.1" xmlns="http://www.w3.org/2000/svg"><path d="M760.8832 77.7728H271.36a177.3056 177.3056 0 0 0-176.9984 177.1008v509.0816A177.2544 177.2544 0 0 0 271.36 941.0048h489.4208a177.2544 177.2544 0 0 0 177.1008-177.0496V254.8736a177.3056 177.3056 0 0 0-176.9984-177.1008z m-53.9136 61.44v146.6368a36.9152 36.9152 0 0 1-36.864 36.9152H362.24a36.9152 36.9152 0 0 1-36.864-36.9152V139.2128z m169.5744 624.64a115.7632 115.7632 0 0 1-115.6608 115.6096H271.36a115.7632 115.7632 0 0 1-115.6608-115.6096V254.8736a115.7632 115.7632 0 0 1 108.2368-115.3536v146.3296A98.4576 98.4576 0 0 0 362.24 384h307.8656a98.4576 98.4576 0 0 0 98.304-98.3552V139.52a115.7632 115.7632 0 0 1 108.1344 115.3536z" fill="#333333" /><path d="M439.552 261.7344h153.2416a30.72 30.72 0 0 0 0-61.44H439.552a30.72 30.72 0 0 0 0 61.44z" fill="#333333" /></svg>