<?xml version="1.0" standalone="no"?><!DOCTYPE svg PUBLIC "-//W3C//DTD SVG 1.1//EN" "http://www.w3.org/Graphics/SVG/1.1/DTD/svg11.dtd"><svg class="icon" width="200px" height="200.00px" viewBox="0 0 1024 1024" version="1.1" xmlns="http://www.w3.org/2000/svg"><path d="M961.46 560.51L529.71 131.77a25 25 0 0 0-35.1-0.12L66.35 550.87a25 25 0 0 0 35 35.73L512 184.62 926.22 596a25 25 0 1 0 35.24-35.47zM815.05 430a25 25 0 0 0-25 25v385.26H604.59V601.18a35 35 0 0 0-35-35h-123.2a35 35 0 0 0-35 35v239.08H225.93V458a25 25 0 0 0-50 0v407.26a25 25 0 0 0 25 25h614.12a25 25 0 0 0 25-25V455a25 25 0 0 0-25-25zM461.39 616.18h93.2v223.48h-93.2zM634.43 206.55h159.5v160.6a25 25 0 0 0 50 0v-185.6a25 25 0 0 0-25-25h-184.5a25 25 0 0 0 0 50z" /></svg>